<svg width="162" height="80" viewBox="0 0 162 80" fill="none" xmlns="http://www.w3.org/2000/svg">
<g opacity="0.6">
<path d="M21 52.7561C21 42.3505 27.8407 27.8404 31.5 21.4434C35.1593 27.8404 42 42.3505 42 52.7561C42 63.1617 35.1593 67.8993 31.5 69.0688C27.8407 67.8993 21 63.1617 21 52.7561Z" fill="#2D3754"/>
<path d="M32.2568 68.122C32.2568 67.8459 32.033 67.622 31.7568 67.622C31.4807 67.622 31.2568 67.8459 31.2568 68.122L32.2568 68.122ZM31.2568 68.122L31.2568 79.3903L32.2568 79.3903L32.2568 68.122L31.2568 68.122Z" fill="#2D3754"/>
</g>
<path d="M0 43.1772C0 29.0292 9.30103 9.30052 14.2763 0.6029C19.2516 9.30052 28.5527 29.0292 28.5527 43.1772C28.5527 57.3253 19.2516 63.7667 14.2763 65.3568C9.30103 63.7667 0 57.3253 0 43.1772Z" fill="#2D3754"/>
<path d="M15.125 64.0696C15.125 63.7935 14.9011 63.5696 14.625 63.5696C14.3489 63.5696 14.125 63.7935 14.125 64.0696L15.125 64.0696ZM14.125 64.0696L14.125 79.3906L15.125 79.3906L15.125 64.0696L14.125 64.0696Z" fill="#2D3754"/>
<path d="M49.5 59C49.5 58.7239 49.2761 58.5 49 58.5C48.7239 58.5 48.5 58.7239 48.5 59H49.5ZM49.5 79V59H48.5V79H49.5Z" fill="#2D3754"/>
<circle cx="49" cy="44" r="15" fill="#2D3754"/>
<g opacity="0.8">
<path d="M90 43.1772C90 29.0292 99.301 9.30052 104.276 0.6029C109.252 9.30052 118.553 29.0292 118.553 43.1772C118.553 57.3253 109.252 63.7667 104.276 65.3568C99.301 63.7667 90 57.3253 90 43.1772Z" fill="#2D3754"/>
<path d="M105.125 64.0696C105.125 63.7935 104.901 63.5696 104.625 63.5696C104.349 63.5696 104.125 63.7935 104.125 64.0696L105.125 64.0696ZM104.125 64.0696L104.125 79.3906L105.125 79.3906L105.125 64.0696L104.125 64.0696Z" fill="#2D3754"/>
</g>
<g opacity="0.8">
<path d="M133 43.1772C133 29.0292 142.301 9.30052 147.276 0.6029C152.252 9.30052 161.553 29.0292 161.553 43.1772C161.553 57.3253 152.252 63.7667 147.276 65.3568C142.301 63.7667 133 57.3253 133 43.1772Z" fill="#2D3754"/>
<path d="M148.125 64.0696C148.125 63.7935 147.901 63.5696 147.625 63.5696C147.349 63.5696 147.125 63.7935 147.125 64.0696L148.125 64.0696ZM147.125 64.0696L147.125 79.3906L148.125 79.3906L148.125 64.0696L147.125 64.0696Z" fill="#2D3754"/>
</g>
<path d="M125.5 59C125.5 58.7239 125.276 58.5 125 58.5C124.724 58.5 124.5 58.7239 124.5 59H125.5ZM125.5 79V59H124.5V79H125.5Z" fill="#2D3754"/>
<circle cx="125" cy="44" r="15" fill="#2D3754"/>
</svg>
