<svg width="32" height="32" viewBox="0 0 32 32" fill="none" xmlns="http://www.w3.org/2000/svg">
<path d="M2 10.5C2 10.2239 2.22386 10 2.5 10H6.76871C7.9084 10 8.91313 10.2472 9.78289 10.7416C10.6627 11.2247 11.3425 11.9101 11.8223 12.7978C12.3122 13.6854 12.5571 14.7191 12.5571 15.8989C12.5571 17.0787 12.3122 18.1124 11.8223 19C11.3425 19.8876 10.6627 20.5787 9.78289 21.073C8.91313 21.5562 7.9084 21.7978 6.76871 21.7978H2.5C2.22386 21.7978 2 21.5739 2 21.2978V10.5ZM6.64874 19.5562C7.69846 19.5562 8.53323 19.2303 9.15306 18.5787C9.78289 17.9157 10.0978 17.0225 10.0978 15.8989C10.0978 14.7753 9.78289 13.8876 9.15306 13.236C8.53323 12.573 7.69846 12.2416 6.64874 12.2416H4.92934C4.6532 12.2416 4.42934 12.4654 4.42934 12.7416V19.0562C4.42934 19.3323 4.6532 19.5562 4.92934 19.5562H6.64874Z" fill="#FF4785"/>
<path d="M29.5 10C29.7761 10 30 10.2239 30 10.5V16.9607C30 18.6011 29.6051 19.8539 28.8153 20.7191C28.0255 21.573 26.9058 22 25.4562 22C24.7364 22 24.0916 21.882 23.5218 21.6461C23.1575 21.4926 22.8356 21.2986 22.556 21.0642C22.3205 20.8669 21.9609 20.8643 21.7243 21.0603C21.4394 21.2965 21.1138 21.4917 20.7475 21.6461C20.1877 21.882 19.5528 22 18.843 22C17.3934 22 16.2737 21.573 15.4839 20.7191C14.6941 19.8539 14.2992 18.6011 14.2992 16.9607V10.5C14.2992 10.2239 14.5231 10 14.7992 10H16.2286C16.5047 10 16.7286 10.2239 16.7286 10.5V16.8764C16.7286 17.8315 16.9035 18.5393 17.2534 19C17.6034 19.4494 18.1232 19.6742 18.813 19.6742C20.2226 19.6742 20.9275 18.7416 20.9275 16.8764V15.1816C20.9275 14.9055 21.1513 14.6816 21.4275 14.6816H22.8568C23.1329 14.6816 23.3568 14.9055 23.3568 15.1816V16.8764C23.3568 18.7416 24.0666 19.6742 25.4862 19.6742C26.8658 19.6742 27.5557 18.7416 27.5557 16.8764V10.5C27.5557 10.2239 27.7795 10 28.0557 10H29.5Z" fill="#FF4785"/>
</svg>
